<svg version="1.1" xmlns="http://www.w3.org/2000/svg" xmlns:xlink="http://www.w3.org/1999/xlink" width="92.1217" height="92.94792" viewBox="0,0,92.1217,92.94792"><defs><linearGradient x1="241.78878" y1="149.34651" x2="241.78878" y2="210.65348" gradientUnits="userSpaceOnUse" id="color-1"><stop offset="0" stop-color="#ffa300"/><stop offset="1" stop-color="#d600cc"/></linearGradient></defs><g transform="translate(-193.93915,-133.52604)"><g data-paper-data="{&quot;isPaintingLayer&quot;:true}" fill-rule="nonzero" stroke="none" stroke-linecap="butt" stroke-linejoin="miter" stroke-miterlimit="10" stroke-dasharray="" stroke-dashoffset="0" style="mix-blend-mode: normal"><path d="M286.06085,180c0,25.66685 -20.62215,46.47396 -46.06085,46.47396c-25.4387,0 -46.06085,-20.80711 -46.06085,-46.47396c0,-25.66685 20.62215,-46.47396 46.06085,-46.47396c25.4387,0 46.06085,20.80711 46.06085,46.47396z" fill="#ffffff" stroke-width="0"/><path d="M231.7575,210.65348l-16.32999,-49.23697l36.39255,-12.06999l16.32999,49.23697z" fill="url(#color-1)" stroke-width="0"/><path d="M206.79506,157.54128l24.65386,-7.12591l24.65386,-7.12591l8.55109,29.58463l8.55109,29.58463l-24.65386,7.12591l-24.65386,7.12591l-8.55109,-29.58463zM235.43594,154.81937c-9.94044,2.87317 -9.19142,2.50707 -9.24724,4.53207c-0.04363,1.40172 1.03564,5.72723 1.82175,7.3379c0.68965,1.42484 1.62077,2.50208 2.15113,2.56249c0.19461,0.00786 1.59233,-0.33202 3.11101,-0.77098l2.76123,-0.7981l2.71709,9.62225c2.70568,9.5828 2.72278,9.64197 2.55419,10.75924c-0.32887,2.1894 -1.50904,3.57768 -3.88059,4.54097c-1.54626,0.63926 -3.15353,0.69779 -5.09531,0.19049l-1.31804,-0.34564l-0.47938,0.92928c-0.58894,1.0678 -1.08392,3.34795 -1.15992,5.22918c-0.076,1.88123 0.68219,4.5044 1.5962,5.52246c1.22526,1.35552 3.74038,2.14588 6.84536,2.16736c1.33114,0.0213 2.20204,-0.14494 5.80874,-1.12331c4.68885,-1.22703 5.69427,-1.66723 7.872,-3.30111c2.82197,-2.14065 4.93286,-5.33665 5.4317,-8.19492c0.56279,-3.15458 0.76278,-2.31481 -4.84458,-21.93666c-4.93204,-17.3594 -5.06008,-17.72844 -5.68565,-18.48794c-0.48967,-0.58507 -0.8513,-0.80111 -1.42681,-0.86985c-0.64038,-0.07136 -2.2945,0.34263 -9.53287,2.4348z" fill="#ffffff" stroke-width="1"/></g></g></svg>